# xmcd CD database file
#
# Track frame offsets:
#	150
#	13037
#	30236
#	45934
#	61032
#	72779
#	92978
#	109618
#	123216
#	136700
#	155837
#	173155
#
# Disc length: 2583 seconds
#
# Revision: 0
# Processed by: cddbd v1.5.2PL0 Copyright (c) Steve Scherf et al.
# Submitted via: CDex 1.51
#
DISCID=8b0a150c
DTITLE=Hetty Kate and The Irwell Street Band - 11:60pm
DYEAR=2009
DGENRE=Jazz
TTITLE0=Zing Went The Strings Of My Heart
TTITLE1=11:60 PM
TTITLE2=I Love You But I Don't Like You
TTITLE3=Funny Funny Funny What A Dime Can Do
TTITLE4=In A Little Spanish Town
TTITLE5=Underneath The Arches
TTITLE6=Elmers Tune
TTITLE7=Sing You Sinners
TTITLE8=Riffin' The Scoth
TTITLE9=You Came A Long Way From St Louis
TTITLE10=I Go For That
TTITLE11=The Bluest Kind Of Blue
EXTD=YEAR: 2009
EXTT0=
EXTT1=
EXTT2=
EXTT3=
EXTT4=
EXTT5=
EXTT6=
EXTT7=
EXTT8=
EXTT9=
EXTT10=
EXTT11=
PLAYORDER=
